<?xml version="1.0" standalone="no"?>
<!DOCTYPE svg PUBLIC "-//W3C//DTD SVG 20010904//EN"
 "http://www.w3.org/TR/2001/REC-SVG-20010904/DTD/svg10.dtd">
<svg version="1.0" xmlns="http://www.w3.org/2000/svg"
 width="700.000000pt" height="700.000000pt" viewBox="0 0 700.000000 700.000000"
 preserveAspectRatio="xMidYMid meet">
<metadata>
Created by potrace 1.14, written by Peter Selinger 2001-2017
</metadata>
<g transform="translate(0.000000,700.000000) scale(0.100000,-0.100000)"
fill="#000000" stroke="none">
<path d="M3518 6145 c-2 -2 -28 -6 -58 -9 -108 -11 -147 -18 -266 -46 -144
-34 -488 -147 -587 -193 l-71 -33 170 -106 c93 -58 185 -115 204 -126 19 -10
76 -43 125 -72 50 -29 122 -71 160 -93 335 -191 491 -307 574 -429 30 -45 131
-216 131 -223 0 -1 26 -58 58 -126 90 -189 158 -377 164 -446 3 -45 -18 -65
-61 -60 -101 13 -118 27 -686 583 -393 385 -537 516 -682 625 -209 158 -341
180 -563 98 -80 -30 -331 -164 -434 -233 -179 -119 -237 -178 -325 -338 -58
-106 -151 -297 -151 -312 0 -16 8 -15 145 9 44 8 103 17 130 21 28 3 58 8 68
10 10 2 48 6 85 10 36 3 75 8 87 10 11 3 95 7 186 9 247 7 270 -3 624 -266
154 -114 391 -279 401 -279 3 0 238 -155 259 -172 6 -4 43 -34 84 -65 169
-129 220 -223 175 -319 -19 -40 -52 -52 -131 -48 -82 4 -132 25 -383 164 -421
234 -713 373 -975 463 -119 41 -350 101 -455 117 -41 7 -82 14 -91 15 -75 14
-285 25 -326 17 -39 -7 -89 -63 -135 -152 -89 -170 -383 -857 -372 -869 2 -2
38 6 81 17 43 11 94 23 113 26 19 3 45 8 58 11 43 8 247 34 317 41 39 3 86 8
105 10 19 2 159 7 311 10 l277 6 93 -32 c713 -246 772 -274 784 -376 11 -89
-82 -123 -275 -101 -53 6 -368 68 -440 87 -19 5 -46 11 -60 14 -14 2 -74 16
-135 31 l-110 26 -335 -5 c-361 -7 -510 -12 -550 -22 -14 -3 -36 -8 -50 -10
-43 -8 -189 -55 -194 -63 -23 -36 -40 -501 -39 -1036 0 -373 2 -438 14 -457 6
-10 25 -8 92 9 88 22 193 27 268 13 24 -5 60 -11 79 -14 19 -3 97 -23 173 -46
209 -61 214 -62 532 -86 50 -3 92 -8 95 -9 3 -2 25 -6 50 -10 105 -16 247 -72
550 -218 233 -112 273 -128 298 -122 38 9 242 221 304 315 60 91 127 226 178
360 12 30 28 69 35 85 8 17 35 82 60 145 125 313 218 436 336 448 54 5 79 -6
113 -51 33 -43 37 -70 19 -132 -13 -44 -152 -333 -173 -360 -10 -13 -172 -335
-200 -400 -75 -170 -158 -324 -225 -418 -42 -60 -75 -110 -73 -111 1 -2 50 2
108 9 58 7 146 16 195 19 50 3 108 8 130 11 22 3 65 7 95 10 146 13 182 18
275 36 178 35 297 112 363 237 27 51 63 163 76 232 2 14 13 75 25 135 11 61
25 145 31 187 6 42 13 86 15 98 11 58 18 192 20 370 1 120 6 205 13 222 20 48
76 62 132 33 55 -28 72 -63 95 -200 2 -16 8 -82 12 -145 14 -232 6 -488 -23
-670 -3 -25 -8 -54 -9 -65 -8 -54 -39 -188 -75 -317 -21 -78 -37 -144 -36
-146 8 -7 384 230 721 455 254 170 264 177 289 215 37 56 -1 285 -86 518 -42
118 -56 147 -173 381 -57 114 -106 219 -109 234 -14 75 78 115 162 71 72 -37
184 -188 260 -349 69 -147 108 -312 107 -454 0 -40 3 -72 6 -70 4 1 29 35 57
75 76 113 182 217 347 340 6 4 44 27 85 51 90 52 169 108 192 136 76 89 110
326 59 409 -48 76 -146 131 -337 185 -77 22 -174 55 -215 72 l-74 32 -185 -7
c-102 -3 -198 -8 -215 -12 -67 -12 -75 -15 -75 -23 0 -26 300 -145 485 -192
100 -26 115 -34 115 -64 0 -27 -4 -29 -85 -26 -133 5 -608 200 -773 318 -70
50 -91 53 -173 30 -79 -24 -82 -29 -75 -144 11 -166 34 -270 126 -563 125
-400 167 -576 185 -775 4 -38 9 -87 11 -107 3 -36 2 -38 -26 -38 -62 0 -66 8
-74 150 -8 117 -34 249 -88 440 -16 58 -31 110 -32 115 -4 16 -72 231 -115
360 -21 66 -42 149 -46 185 -3 36 -8 76 -10 90 -2 14 -6 61 -10 105 -7 97 -12
115 -30 115 -25 0 -339 -109 -395 -138 -58 -29 -62 -36 -75 -130 -3 -26 -10
-78 -16 -117 -5 -38 -12 -86 -14 -105 -3 -19 -12 -87 -21 -150 -8 -63 -17
-128 -19 -145 -1 -16 -6 -50 -9 -75 -4 -25 -16 -108 -27 -185 -11 -77 -22
-146 -25 -154 -2 -8 -7 -30 -10 -50 -11 -77 -55 -232 -90 -323 -43 -109 -80
-163 -107 -152 -26 10 -21 42 27 192 40 121 65 206 71 237 20 92 36 178 40
212 2 13 6 42 10 65 9 60 13 85 20 147 4 30 9 63 11 75 3 18 15 106 39 296 4
33 20 170 30 254 6 49 1 56 -33 46 -35 -11 -549 -188 -667 -230 -49 -17 -111
-38 -136 -46 -59 -18 -77 -39 -95 -111 -8 -32 -19 -69 -24 -83 -4 -14 -23 -72
-40 -130 -97 -318 -195 -607 -234 -685 -63 -124 -136 -194 -172 -164 -16 13
-9 35 43 120 71 116 136 288 258 684 25 83 52 171 60 197 18 57 19 75 3 81
-12 4 -80 -15 -123 -33 -11 -5 -58 -22 -105 -38 -143 -50 -415 -153 -840 -317
-899 -348 -980 -375 -980 -327 0 20 65 52 342 168 100 42 197 82 213 89 47 20
391 155 585 230 96 37 225 86 285 110 61 23 121 46 134 50 21 7 22 8 7 17 -16
9 -142 54 -176 63 -8 3 -74 22 -146 44 -72 22 -148 42 -169 45 -20 4 -40 8
-44 10 -18 12 -264 46 -436 61 -142 13 -195 30 -195 61 0 32 40 35 230 19 47
-4 99 -9 115 -10 48 -4 139 -16 155 -20 8 -2 39 -7 69 -10 88 -11 274 -60 476
-125 208 -68 281 -78 372 -54 57 15 391 134 538 192 49 19 105 39 123 44 18 5
32 15 30 21 -6 18 -402 278 -483 317 -5 3 -28 17 -50 31 -161 105 -513 291
-660 349 -139 56 -328 107 -460 125 -97 13 -196 36 -229 53 l-30 15 22 18 c18
14 36 17 90 14 167 -9 380 -50 547 -106 172 -57 511 -233 845 -437 385 -237
563 -341 571 -337 7 5 271 96 597 207 50 18 92 34 92 38 0 9 -47 65 -126 149
-108 115 -112 120 -263 296 -196 228 -526 559 -700 702 -19 15 -48 40 -65 56
-126 112 -326 246 -511 342 -189 98 -198 104 -183 122 24 30 51 31 115 8 300
-113 631 -361 1078 -811 189 -189 207 -209 400 -434 214 -249 322 -356 374
-370 35 -9 52 -6 151 26 164 53 162 45 60 252 -78 158 -106 223 -230 542 -119
304 -258 572 -510 980 -111 180 -190 321 -190 341 0 31 28 28 64 -7 69 -67
227 -312 386 -599 150 -271 275 -537 390 -828 68 -174 211 -469 258 -533 33
-45 71 -64 73 -36 0 10 2 26 4 37 2 11 7 65 10 120 3 55 7 138 10 185 6 94 12
269 20 555 3 105 8 258 10 340 7 223 7 628 1 656 -3 13 -8 40 -10 59 -3 19
-10 59 -16 89 -16 85 -14 101 13 101 13 0 31 -8 40 -17 15 -17 40 -94 52 -158
24 -133 24 -516 0 -1005 -5 -86 -13 -349 -20 -649 -3 -101 -1 -161 5 -155 20
20 169 291 275 499 205 404 277 586 369 935 42 160 54 185 86 185 24 0 25 -3
23 -54 -3 -61 -47 -253 -94 -406 -67 -219 -224 -572 -379 -855 -103 -187 -151
-280 -146 -280 11 0 326 112 401 143 95 39 226 111 261 145 79 74 128 194 154
377 6 44 13 91 15 105 5 36 13 105 20 175 4 33 9 76 11 95 3 19 7 112 9 205 6
244 -24 398 -107 538 -140 240 -550 546 -909 680 -172 64 -192 67 -588 72
-275 3 -348 6 -431 21 -31 5 -93 13 -185 23 -64 8 -380 12 -387 6z"/>
</g>
</svg>
